PathFileType	4	(X/Y/Z)	marker.trc
DataRate	CameraRate	NumFrames	NumMarkers	Units	OrigDataRate	OrigDataStartFrame	OrigNumFrames
128	128	23	6	m	128	1	3845
Frame#	Time	US29-1	US29-2	US29-3	US30-1	US30-2	US30-3	
		X1	Y1	Z1	X2	Y2	Z2	X3	Y3	Z3	X4	Y4	Z4	X5	Y5	Z5	X6	Y6	Z6	

0	37.78125	-nan	-nan	-nan	-nan	-nan	-nan	-nan	-nan	-nan	-nan	-nan	-nan	-nan	-nan	-nan	-nan	-nan	-nan	
1	0	-nan	-nan	-nan	-nan	-nan	-nan	-nan	-nan	-nan	-nan	-nan	-nan	-nan	-nan	-nan	-nan	-nan	-nan	
2	0.023437	-nan	-nan	-nan	-nan	-nan	-nan	-nan	-nan	-nan	-nan	-nan	-nan	-nan	-nan	-nan	-nan	-nan	-nan	
3	0.03125	-nan	-nan	-nan	-nan	-nan	-nan	-nan	-nan	-nan	-nan	-nan	-nan	-nan	-nan	-nan	-nan	-nan	-nan	
4	0.039062	-nan	-nan	-nan	-nan	-nan	-nan	-nan	-nan	-nan	-nan	-nan	-nan	-nan	-nan	-nan	-nan	-nan	-nan	
5	0.046875	-0.307175636291504	0.0831108540296555	0.204727292060852	-0.27357143163681	0.0998924300074577	0.195037692785263	-0.310231864452362	0.105564393103123	0.203646749258041	-0.32492932677269	0.0993282720446587	0.127632215619087	-0.333231747150421	0.0903897434473038	0.150769546627998	-0.338566273450851	0.111767530441284	0.145160377025604	
6	0.054687	-0.305571019649506	0.0832271799445152	0.204152330756187	-0.272052884101868	0.100082010030746	0.194334700703621	-0.308721363544464	0.105681039392948	0.203119337558746	-0.323764443397522	0.0994052365422249	0.127172440290451	-0.331922769546509	0.0904803201556206	0.150438487529755	-0.337374657392502	0.111854918301105	0.144750759005547	
7	0.0625	-0.303903520107269	0.0833674743771553	0.203628599643707	-0.270570516586304	0.100254386663437	0.193617522716522	-0.307075828313828	0.105806924402714	0.202574387192726	-0.322569221258163	0.099496990442276	0.126731246709824	-0.330593794584274	0.0904560163617134	0.149971649050713	-0.335985690355301	0.111846178770065	0.144413515925407	
8	0.070312	-0.302294164896011	0.0834499448537827	0.203018039464951	-0.268937200307846	0.100444570183754	0.192877724766731	-0.305523306131363	0.105915211141109	0.202000811696053	-0.321383088827133	0.0995924174785614	0.126196533441544	-0.329435557126999	0.0905717834830284	0.149462670087814	-0.334790885448456	0.11193760484457	0.143892765045166	
9	0.078125	-0.300609350204468	0.0835440754890442	0.20240706205368	-0.267377585172653	0.100563630461693	0.192057251930237	-0.303876727819443	0.105952598154545	0.201411023736	-0.320134341716766	0.0996812358498573	0.125664830207825	-0.328136593103409	0.0906360149383545	0.14898270368576	-0.333491712808609	0.112026922404766	0.143497064709663	
10	0.085937	-0.298993498086929	0.0836284086108208	0.201696842908859	-0.265924751758575	0.100725904107094	0.191205874085426	-0.302349746227264	0.106068901717663	0.200783982872963	-0.319110721349716	0.0997443348169327	0.125129878520966	-0.326748102903366	0.0904228538274765	0.148272126913071	-0.331977069377899	0.112144410610199	0.143065541982651	
11	0.09375	-0.297451287508011	0.0836850553750992	0.200976222753525	-0.264369457960129	0.100771896541119	0.190113067626953	-0.300745636224747	0.10642646998167	0.19977879524231	-0.317905247211456	0.0998564660549164	0.124554172158241	-0.325639605522156	0.0904110074043274	0.14778496325016	-0.331043809652328	0.112160593271255	0.142592936754227	
12	0.101562	-0.29589718580246	0.0837676301598549	0.200214505195618	-0.26280865073204	0.10087962448597	0.18926215171814	-0.299239695072174	0.106488347053528	0.199144706130028	-0.316906332969666	0.0999334305524826	0.12398586422205	-0.324322551488876	0.0904535502195358	0.147267997264862	-0.329644292593002	0.112270273268223	0.14212304353714	
13	0.109375	-0.294337511062622	0.0837959200143814	0.199525073170662	-0.261389166116714	0.101061843335629	0.188373938202858	-0.297702670097351	0.106587097048759	0.198495179414749	-0.315686881542206	0.0999877080321312	0.123441658914089	-0.323173224925995	0.090505875647068	0.146715715527534	-0.328525066375732	0.112357586622238	0.141635313630104	
14	0.117187	-0.292841970920563	0.0838790312409401	0.198779255151749	-0.259982943534851	0.101156651973724	0.187428280711174	-0.296255022287369	0.106618270277977	0.197811737656593	-0.314646601676941	0.100038208067417	0.122830741107464	-0.322060763835907	0.0905483439564705	0.146219715476036	-0.327331572771072	0.112395644187927	0.141102716326714	
15	0.125	-0.291314870119095	0.0839006453752518	0.198045149445534	-0.258535206317902	0.101247191429138	0.186528623104095	-0.294711172580719	0.106383346021175	0.197420045733452	-0.313694685697556	0.100099712610245	0.122269883751869	-0.320993006229401	0.0906471833586693	0.145658358931541	-0.326116651296616	0.112482339143753	0.1405980437994	
16	0.132812	-0.289855360984802	0.0839180052280426	0.197272807359695	-0.257159233093262	0.101341992616653	0.18555623292923	-0.293276220560074	0.106473341584206	0.196755915880203	-0.312730759382248	0.100190505385399	0.121693596243858	-0.320021569728851	0.0906906947493553	0.145133122801781	-0.325085610151291	0.112478077411652	0.140052363276482	
17	0.140625	-0.288452625274658	0.0839649438858032	0.196523755788803	-0.255825698375702	0.101420804858208	0.184588685631752	-0.291866570711136	0.106517910957336	0.196082815527916	-0.311926066875458	0.100243546068668	0.121141031384468	-0.318883180618286	0.0906436517834663	0.144605979323387	-0.323977410793304	0.112592250108719	0.139565140008926	
18	0.148437	-0.287071794271469	0.0839970782399178	0.195792853832245	-0.254431515932083	0.101505175232887	0.183672502636909	-0.290463149547577	0.106519043445587	0.195344820618629	-0.311030596494675	0.100280798971653	0.120590545237064	-0.317850559949875	0.0906143039464951	0.144083723425865	-0.322879612445831	0.112661451101303	0.139022827148438	
19	0.15625	-0.285655677318573	0.0839973017573357	0.195077121257782	-0.253225803375244	0.101563662290573	0.182683557271957	-0.289037525653839	0.10652606934309	0.194633916020393	-0.310097396373749	0.100186236202717	0.120235070586205	-0.316863000392914	0.0905290618538857	0.143506601452827	-0.321912884712219	0.112672887742519	0.138492524623871	
20	0.164062	-0.284305930137634	0.0839871689677238	0.194285497069359	-0.251960307359695	0.101604267954826	0.181704819202423	-0.287737756967545	0.106536075472832	0.193917080760002	-0.309314042329788	0.100249908864498	0.119378760457039	-0.315776497125626	0.090559110045433	0.14293971657753	-0.320874243974686	0.112689465284348	0.137926742434502	
21	0.171875	-0.283016741275787	0.0839846879243851	0.193587049841881	-0.250615507364273	0.101703643798828	0.180744588375092	-0.286339342594147	0.106593646109104	0.193217068910599	-0.308409750461578	0.10021761059761	0.119078978896141	-0.314860641956329	0.090448722243309	0.142386391758919	-0.319871097803116	0.112793929874897	0.13741746544838	
22	0.179687	-0.281737238168716	0.0839212536811829	0.192848607897758	-0.249383524060249	0.101759314537048	0.17978173494339	-0.284894645214081	0.106447286903858	0.192834496498108	-0.307512402534485	0.100194968283176	0.11852141469717	-0.313481897115707	0.0902106836438179	0.141823321580887	-0.318825155496597	0.11279834061861	0.136946141719818	
